<mxfile host="app.diagrams.net" modified="2024-06-13T11:31:38.803Z" agent="Mozilla/5.0 (Windows NT 10.0; Win64; x64) AppleWebKit/537.36 (KHTML, like Gecko) Chrome/125.0.0.0 Safari/537.36" etag="zvNdFscHMm4qEKSpK7nu" version="24.5.4" type="device">
  <diagram name="PÃ¡gina-1" id="mnodsvu_-z6eb6R8PEv7">
    <mxGraphModel dx="499" dy="1914" grid="1" gridSize="10" guides="1" tooltips="1" connect="1" arrows="1" fold="1" page="1" pageScale="1" pageWidth="827" pageHeight="1169" math="0" shadow="0">
      <root>
        <mxCell id="0" />
        <mxCell id="1" parent="0" />
        <mxCell id="vnFoDGW5ZsRV5C2Y7I7--1" value="Livro" style="whiteSpace=wrap;html=1;align=center;" vertex="1" parent="1">
          <mxGeometry x="20" y="40" width="100" height="40" as="geometry" />
        </mxCell>
        <mxCell id="vnFoDGW5ZsRV5C2Y7I7--3" value="Escreve" style="shape=rhombus;perimeter=rhombusPerimeter;whiteSpace=wrap;html=1;align=center;" vertex="1" parent="1">
          <mxGeometry x="200" y="30" width="120" height="60" as="geometry" />
        </mxCell>
        <mxCell id="vnFoDGW5ZsRV5C2Y7I7--4" value="" style="line;strokeWidth=1;rotatable=0;dashed=0;labelPosition=right;align=left;verticalAlign=middle;spacingTop=0;spacingLeft=6;points=[];portConstraint=eastwest;" vertex="1" parent="1">
          <mxGeometry x="120" y="55" width="80" height="10" as="geometry" />
        </mxCell>
        <mxCell id="vnFoDGW5ZsRV5C2Y7I7--6" value="Autor" style="whiteSpace=wrap;html=1;align=center;" vertex="1" parent="1">
          <mxGeometry x="400" y="40" width="100" height="40" as="geometry" />
        </mxCell>
        <mxCell id="vnFoDGW5ZsRV5C2Y7I7--9" value="" style="line;strokeWidth=1;rotatable=0;dashed=0;labelPosition=right;align=left;verticalAlign=middle;spacingTop=0;spacingLeft=6;points=[];portConstraint=eastwest;gradientColor=none;" vertex="1" parent="1">
          <mxGeometry x="320" y="57.5" width="80" height="5" as="geometry" />
        </mxCell>
        <mxCell id="vnFoDGW5ZsRV5C2Y7I7--10" value="Livro" style="whiteSpace=wrap;html=1;align=center;" vertex="1" parent="1">
          <mxGeometry x="20" y="260" width="100" height="40" as="geometry" />
        </mxCell>
        <mxCell id="vnFoDGW5ZsRV5C2Y7I7--11" value="Escreve" style="shape=rhombus;perimeter=rhombusPerimeter;whiteSpace=wrap;html=1;align=center;" vertex="1" parent="1">
          <mxGeometry x="200" y="250" width="120" height="60" as="geometry" />
        </mxCell>
        <mxCell id="vnFoDGW5ZsRV5C2Y7I7--12" value="" style="line;strokeWidth=1;rotatable=0;dashed=0;labelPosition=right;align=left;verticalAlign=middle;spacingTop=0;spacingLeft=6;points=[];portConstraint=eastwest;" vertex="1" parent="1">
          <mxGeometry x="120" y="275" width="80" height="10" as="geometry" />
        </mxCell>
        <mxCell id="vnFoDGW5ZsRV5C2Y7I7--13" value="Autor" style="whiteSpace=wrap;html=1;align=center;" vertex="1" parent="1">
          <mxGeometry x="400" y="260" width="100" height="40" as="geometry" />
        </mxCell>
        <mxCell id="vnFoDGW5ZsRV5C2Y7I7--14" value="" style="line;strokeWidth=1;rotatable=0;dashed=0;labelPosition=right;align=left;verticalAlign=middle;spacingTop=0;spacingLeft=6;points=[];portConstraint=eastwest;gradientColor=none;" vertex="1" parent="1">
          <mxGeometry x="320" y="277.5" width="80" height="5" as="geometry" />
        </mxCell>
        <mxCell id="vnFoDGW5ZsRV5C2Y7I7--15" value="1" style="text;html=1;align=center;verticalAlign=middle;resizable=0;points=[];autosize=1;strokeColor=none;fillColor=none;" vertex="1" parent="1">
          <mxGeometry x="5" y="-2" width="30" height="30" as="geometry" />
        </mxCell>
        <mxCell id="vnFoDGW5ZsRV5C2Y7I7--16" value="2" style="text;html=1;align=center;verticalAlign=middle;resizable=0;points=[];autosize=1;strokeColor=none;fillColor=none;" vertex="1" parent="1">
          <mxGeometry x="5" y="208" width="30" height="30" as="geometry" />
        </mxCell>
      </root>
    </mxGraphModel>
  </diagram>
</mxfile>
